<?xml version="1.0" encoding="utf-8"?>
<!-- Generator: Adobe Illustrator 24.3.0, SVG Export Plug-In . SVG Version: 6.00 Build 0)  -->
<svg version="1.0" id="katman_1" xmlns="http://www.w3.org/2000/svg" xmlns:xlink="http://www.w3.org/1999/xlink" x="0px" y="0px"
	 viewBox="0 0 841.89 595.28" style="enable-background:new 0 0 841.89 595.28;" xml:space="preserve">
<style type="text/css">
	.st0{fill-rule:evenodd;clip-rule:evenodd;fill:#FFFFFE;}
	.st1{fill-rule:evenodd;clip-rule:evenodd;fill:#4AA241;}
	.st2{fill-rule:evenodd;clip-rule:evenodd;}
</style>
<g>
	<path class="st0" d="M690.84,224.11c-0.58,3.38-0.81,11.68,4.04,10.62c6.47-1.39,5.63-2.06,9.17-5.16
		c2.36-2.07,8.17,3.58,0.09,12.59c-4.4,4.93-5.38,6.45-3.02,9.29c2.46,2.96,8.85,4.09,8.85,13.21c0,8,10.27,2.2,12.76-0.92
		c2.43-3.05,4.22-16.98,11.15-6.84c4.91,7.21-3.48,22.65,6.62,24.16c8.29,1.25,9.75,10.7,9.98,13.11l0.04,0.56
		c21.21-20.36,7.08-46.7,6.55-49.91c-0.91-5.71,2.17-3.62,5.95-0.12c-15.63-29.32-46.48-49.28-82.01-49.28
		c-6.13,0-12.13,0.61-17.93,1.75C681.41,197.56,694.2,204.88,690.84,224.11 M739.55,336.1c-5.7,2.28-8.18-1.38-12.41,2.76
		c-4.66,4.54,10.22,13.46-17.16,7.21c-12.23-2.79-10.56,10.51-24.3,3.53c-3.8-9.05-3.91-14.38-0.66-20.05
		c3.79-6.64,5.14-4.4,2.84-11.71c-0.91-2.85-0.03-4.12,1.48-8.09c1.5-3.97-0.42-9.47-6.01-9.16c-7.44,0.41-6.58,3.79-11.17,6.87
		c-3.08,2.06-8.27-8.42,2.62-17.84c5.96-5.14,7.36-6.8,5.39-10.75c-2.04-4.12-5.81-2.64-7.34-7.37c-1.17-3.63,0.65-10.47-4.58-12.1
		c-5.93-1.86-10.66,6.63-14.08,9.95c-3.99,3.86-8.35,10.78-10.5,5.27c-3.81-9.81,13.7-24.42,2.91-28.3
		c-10.16-3.65-13.47-14.32-13.47-14.32c-27.88,20.68-14.68,38.87-17,42.09c-2.32,3.22-6.79-3.92-10.55-0.5
		c-2.9,2.64-5.49,19.55,12.38,30.28c6.77,4.06,8.99,5.1,7.37,7.56c-1.3,1.95-6.72,0.31-6.64,4.77c0.18,8.96,14.56,6.27,17.17,17.49
		c2.45,10.49,47.04,16.76,47.04,16.76c-0.05-0.05,0.2,0.02,0.56,0.13l2.12,1.18c0.66,2.77,3.31,9.1,9.52,12.29
		c10.27,5.28-0.63,2.74,0.77,6.47c0.71,1.89,7.99,6.81,20.93,3.83c17.89-7.47,32.94-20.39,43.11-36.68
		C748.81,329.02,747.98,330.81,739.55,336.1"/>
	<path class="st1" d="M683.43,350.58c-0.36-0.11-0.61-0.18-0.56-0.13c0,0-44.58-6.27-47.04-16.76
		c-2.62-11.22-16.99-8.53-17.17-17.49c-0.08-4.46,5.34-2.82,6.64-4.77c1.62-2.46-0.6-3.5-7.37-7.56
		c-17.86-10.73-15.28-27.64-12.37-30.28c3.76-3.42,8.23,3.72,10.55,0.5c2.32-3.22-10.88-21.41,17-42.09c0,0,3.31,10.67,13.46,14.32
		c10.79,3.88-6.72,18.49-2.91,28.3c2.15,5.51,6.51-1.4,10.5-5.27c3.42-3.32,8.15-11.8,14.08-9.95c5.23,1.63,3.41,8.48,4.58,12.11
		c1.52,4.73,5.29,3.24,7.33,7.36c1.97,3.96,0.57,5.62-5.39,10.75c-10.89,9.42-5.7,19.9-2.62,17.84c4.59-3.08,3.73-6.46,11.17-6.87
		c5.59-0.31,7.51,5.19,6.02,9.16c-1.5,3.97-2.38,5.24-1.48,8.09c2.3,7.3,0.95,5.07-2.84,11.71c-3.25,5.66-3.13,11,0.66,20.05
		c13.73,6.98,12.07-6.32,24.3-3.53c27.38,6.25,12.5-2.67,17.16-7.21c4.23-4.13,6.7-0.48,12.41-2.76c8.45-5.3,9.25-7.09,20.38,1.62
		c8.94-14.28,14.14-31.17,14.14-49.26c0-15.74-3.93-30.56-10.84-43.57c-3.88-3.61-7.07-5.86-6.15-0.05
		c0.53,3.2,14.66,29.55-6.55,49.91l-0.04-0.56c-0.23-2.41-1.69-11.86-9.98-13.11c-10.1-1.51-1.71-16.94-6.62-24.16
		c-6.93-10.14-8.72,3.79-11.15,6.84c-2.49,3.12-12.76,8.92-12.76,0.92c0-9.11-6.4-10.25-8.85-13.21c-2.36-2.85-1.39-4.36,3.02-9.29
		c8.07-9.01,2.27-14.67-0.09-12.59c-3.54,3.09-2.7,3.76-9.17,5.16c-4.85,1.06-4.62-7.24-4.04-10.62
		c3.35-19.25-9.45-26.56-27.79-26.93c-42.77,8.39-75.04,46.05-75.04,91.27c0,51.38,41.65,93.03,93.02,93.03
		c12.68,0,24.77-2.55,35.79-7.15c-12.97,3.01-20.27-1.92-20.99-3.81c-1.4-3.72,9.49-1.18-0.77-6.47c-6.2-3.19-8.85-9.52-9.52-12.29
		l-2.12-1.18"/>
	<path class="st1" d="M688.67,353.44c0,0-61.15-23.74-63.27-83.91C625.4,269.52,631.3,315.27,688.67,353.44 M688.21,195.58
		c1.75,0.19,14.91,1.94,28.82,10.82c5.17,4.84,12.49,16.72,1.19,41.07c0,0,14.48-19.54,10.82-31.4
		c12.14,12.18,22.35,31.49,22.73,62.09C751.78,278.16,765.27,201.5,688.21,195.58 M749.33,347.63c-4.66,2.83-12.23,9.5-24.6,5.61
		c0,0,4.84,3.72,12.62,3.52c-9.93,5.12-20.69,6.35-37.73,2.09c0,0,34.49,20.34,58.59-18.59
		C758.22,340.25,752.24,345.87,749.33,347.63"/>
	<path class="st2" d="M98.09,265.47c0,6.7,1.27,8.56,6.04,8.56v1.66H84.37v-1.66c3.99,0,6.33-1.17,6.33-8.86v-42.52h-8.08
		c-7.49,0-10.89,2.13-11.38,7.97h-1.65v-12.74h1.65c0.77,0.68,1.66,1.16,3.02,1.55c1.26,0.31,3.01,0.49,5.36,0.49h29.18
		c4.86,0,7.1-0.58,8.85-2.04h1.75v12.74h-1.06c-1.08-4.66-2.92-7.97-11.77-7.97h-8.47V265.47 M158.25,267.41
		c0,5.26,0.97,6.62,5.54,6.62v1.66h-17.9v-1.66c4.68,0,5.75-1.08,5.75-5.55v-17.02c0-4.58-2.72-7.5-6.9-7.5
		c-3.9,0-6.72,1.85-10.03,6.52v18.88c0,3.58,1.45,4.66,5.73,4.66v1.66h-18.48v-1.66c5.16-0.1,6.14-1.08,6.14-6.62v-44.85
		c0-4.47-1.28-5.16-6.14-5.16v-1.65l11.09-1.17h1.65v32.6c4.38-5.06,7.59-6.9,12.06-6.9c5.75,0,11.49,3.79,11.49,11.96
		L158.25,267.41 M193.13,253.02c0.29-7.59-4.87-10.71-9.25-10.71c-5.74,0-9.14,4.28-9.54,10.71H193.13z M174.34,254.67
		c-0.18,15.47,9.05,19.36,13.72,19.36c4.78,0,7.2-1.65,12.17-7.2v2.54c-4.19,5.35-8.19,7.38-14.21,7.38
		c-10.8,0-18.59-7.48-18.59-17.9c0-10.4,7.59-18.57,17.32-18.57c7.98,0,15.38,6.42,14.9,14.4L174.34,254.67L174.34,254.67z
		 M289.13,296.6h-2.62l-62.31-76.81h-0.31v62c0,8.94,3.55,12.18,11.57,12.18v2.62h-26.84v-2.63c7.39,0,10.94-2.31,10.94-15.11V227.2
		c0-9.87-2.62-15.42-13.11-16.35v-2.62h22.67l55.23,68.78h0.31v-51.67c0-11.57-3.09-14.5-10.79-14.5v-2.62h26.69v2.62
		c-8.63,0-11.42,3.55-11.42,13.88L289.13,296.6 M370.67,241.85h18.97v4.01h-18.97v35.17c0,7.56,3.85,11.41,9.87,11.41
		c4.02,0,6.95-1.55,10.18-5.24l1.7,2c-4.78,6.01-10.33,9.09-16.5,9.09c-9.25,0-15.73-6.47-15.73-15.88v-36.56h-10.33v-2.61
		c7.4-3.7,13.56-10.34,18.2-19.75h2.62L370.67,241.85 M451.81,286.27c0,6.02,2.01,7.71,9.4,7.71v2.62l-19.89,1.08v-10.02h-0.31
		c-5.4,7.09-11.72,10.64-19.13,10.64c-10.8,0-17.89-8.17-17.89-18.35v-27.92c0-5.24-1.85-7.25-9.72-7.25v-2.62l17.59-1.7h2.62v39.02
		c0,7.71,4.93,12.34,12.34,12.34c5.24,0,10.02-2.93,14.5-8.95v-29.46c0-7.56-1.24-8.48-10.64-8.64v-2.62l18.51-1.7h2.62
		L451.81,286.27 M485.71,286.27c0,6.02,1.85,7.71,9.09,7.71v2.62h-28.84v-2.63c8.33,0,9.26-2.16,9.26-10.48v-29.77
		c0-8.02-2.01-8.95-11.26-8.95v-2.62l19.13-1.7h2.62v11.88c10.18-8.78,14.96-11.87,18.66-11.87c3.09,0,7.25,1.85,10.03,4.32
		l-4.17,9.71c-4.47-2.47-9.26-4.78-12.96-4.78c-3.55,0-6.64,1.85-11.57,6.63L485.71,286.27 M555.97,260.67
		c0.46-12.03-7.71-16.97-14.66-16.97c-9.09,0-14.5,6.79-15.11,16.97H555.97z M526.2,263.29c-0.31,24.52,14.34,30.69,21.75,30.69
		c7.55,0,11.4-2.63,19.27-11.42v4.02c-6.63,8.48-12.96,11.71-22.52,11.71c-17.12,0-29.46-11.87-29.46-28.37s12.03-29.46,27.46-29.46
		c12.65,0,24.36,10.18,23.6,22.83H526.2L526.2,263.29z M124.56,318.28c-3.23-12.47-10.05-17.9-21.47-17.9
		c-15.94,0-24.49,12.82-24.49,29.8c0,19.85,10.28,32.9,25.17,32.9c10.39,0,18.13-4.85,23.1-14.55l1.73,1.62
		c-4.38,10.51-14.89,17.09-27.59,17.09c-15.93,0-32.56-10.86-32.56-32.9c0-21.01,14.44-36.48,34.18-36.48
		c8.31,0,14.55,2.77,18.47,2.77c1.74,0,2.89-0.7,3.58-2.08h1.85v19.74L124.56,318.28 M155.12,325.9c-8.65,0-13.86,7.62-13.86,19.39
		c0,10.52,4.39,19.29,13.86,19.29c9.69,0,13.86-9.35,13.86-19.29C168.98,335.01,164.6,325.9,155.12,325.9L155.12,325.9z
		 M155.12,366.88c-12.82,0-22.4-9.24-22.4-21.6c0-12.46,9.58-21.7,22.4-21.7c12.82,0,22.4,9.24,22.4,21.7
		C177.52,357.65,167.94,366.88,155.12,366.88L155.12,366.88z M224.96,356.73c0,5.3,1.16,6.92,6.93,6.92v1.97h-21.82v-1.97
		c5.54,0,7.04-1.27,7.04-5.08v-21.36c0-6.57-4.74-9.34-9.12-9.34c-4.04,0-7.62,2.54-11.66,7.96v19.98c0,6.23,0.8,7.85,6.93,7.85
		v1.97h-21.59v-1.97c5.42,0,6.81-0.46,6.81-7.85v-22.98c0-4.96-1.27-6-6.81-6v-1.96l12.69-1.27h1.97v8.19
		c4.85-5.53,9.58-8.19,14.77-8.19c6.81,0,13.86,4.85,13.86,14.66L224.96,356.73 M258.76,336.17c-0.81-6.81-5.31-10.27-10.16-10.27
		c-4.04,0-6.82,2.2-6.82,5.54c0,10.39,21.48,7.62,21.48,22.86c0,6.82-5.88,12.59-12.93,12.59c-4.51,0-8.43-3.01-10.39-3.01
		c-1.5,0-2.54,1.28-2.66,2.77h-1.96v-13.97h1.96c1.74,8.55,8.09,11.9,13.17,11.9c4.05,0,7.16-3.01,7.16-7.05
		c0-11.42-21.71-8.31-21.71-22.16c0-6.35,5.66-11.78,12.47-11.78c4.28,0,5.55,1.97,8.32,1.97c1.04,0,1.84-0.58,2.42-1.97h1.96v12.58
		L258.76,336.17 M298.1,338.71c0.34-9.01-5.78-12.69-10.97-12.69c-6.82,0-10.85,5.08-11.32,12.69H298.1z M275.81,340.68
		c-0.23,18.35,10.74,22.97,16.28,22.97c5.66,0,8.55-1.96,14.44-8.54v2.99c-4.97,6.35-9.7,8.78-16.86,8.78
		c-12.81,0-22.05-8.89-22.05-21.25c0-12.35,9-22.05,20.55-22.05c9.47,0,18.25,7.63,17.67,17.09L275.81,340.68L275.81,340.68z
		 M326.18,357.88c0,4.5,1.38,5.77,6.82,5.77v1.97h-21.6v-1.97c6.23,0,6.93-1.62,6.93-7.85v-22.28c0-6-1.5-6.7-8.43-6.7v-1.96
		l14.31-1.27h1.97v8.89c7.62-6.58,11.2-8.89,13.97-8.89c2.31,0,5.42,1.39,7.51,3.24l-3.12,7.26c-3.35-1.84-6.93-3.57-9.7-3.57
		c-2.66,0-4.96,1.39-8.65,4.96L326.18,357.88 M374.9,355.68l7.97-20.67c1.97-5.31,1.97-7.72-4.04-8.19v-1.96h15.01v1.96
		c-4.74,0.46-5.89,1.5-7.86,5.88l-13.17,33.83h-1.95l-13.06-32.1c-2.77-6.69-3.81-7.39-8.66-7.61v-1.96h19.74v1.96
		c-3.93,0.35-4.96,2.54-3.12,7.04L374.9,355.68 M475.34,356.73c0,5.3,1.16,6.92,6.93,6.92v1.97h-21.82v-1.97
		c5.54,0,7.04-1.27,7.04-5.08v-21.36c0-6.57-4.74-9.34-9.13-9.34c-4.04,0-7.61,2.54-11.66,7.96v19.98c0,6.23,0.81,7.85,6.93,7.85
		v1.97h-21.6v-1.97c5.43,0,6.82-0.46,6.82-7.85v-22.98c0-4.96-1.28-6-6.82-6v-1.96l12.7-1.27h1.96v8.19
		c4.85-5.53,9.59-8.19,14.78-8.19c6.82,0,13.86,4.85,13.86,14.66L475.34,356.73 M520.79,338.01h-1.97
		c-1.74-7.38-6.93-12.12-13.74-12.12c-8.08,0-13.74,6.93-13.74,16.97c0,11.2,7.04,20.56,15.36,20.56c4.97,0,10.97-2.66,15.24-8.55
		v3.01c-4.38,6-10.62,9.01-18.01,9.01c-12.13,0-20.56-8.44-20.56-20.67c0-12.58,9.47-22.63,21.13-22.63c6.13,0,9.47,2.31,11.55,2.31
		c1.03,0,2.08-0.81,2.77-2.31h1.97L520.79,338.01 M550.11,356.14l7.17-21.59c1.62-4.85,1.27-7.5-3.23-7.73v-1.96h14.43v1.96
		c-4.39,0-7.04,2.77-9.35,9.58l-16.28,48.15c-3.24,9.47-8.55,14.89-13.52,14.89c-1.73,0-3-0.46-5.08-1.73l2.66-7.04
		c1.61,0.69,2.53,0.92,3.92,0.92c4.96,0,7.86-2.89,10.39-10.05l5.32-14.78l-14.67-33.83c-2.08-4.74-3.58-6-8.32-6.12v-1.96h19.63
		v1.96c-3.12,0.46-4.39,2.77-2.88,6.23L550.11,356.14 M331.87,285.5c-2.16,4.62-8.02,6.94-11.26,6.94c-4.47,0-8.33-4.48-8.33-10.03
		c0-11.11,9.25-10.94,19.59-15.42L331.87,285.5L331.87,285.5z M342.34,284.71l0.02-24.19c0-14.8-10.64-20.05-19.75-20.05
		c-9.87,0-17.89,6.64-20.2,16.82l2.78,0.77c2.32-7.86,8.32-11.71,14.5-11.71c7.71,0,12.18,5.55,12.18,13.26v4
		c-8.94,5.26-30.23,4.63-30.23,20.21c0,8.02,7.09,14.49,15.58,14.49c5.72,0,9.9-2.25,15.3-8.11l0.03-0.02v6.57h19.16v-2.66
		C343.91,294.08,342.34,291.89,342.34,284.71L342.34,284.71z M415.83,357.25c-1.59,3.43-5.94,5.15-8.35,5.15
		c-3.31,0-6.17-3.31-6.17-7.44c0-8.23,6.86-8.11,14.52-11.43L415.83,357.25L415.83,357.25z M423.59,356.66l0.02-17.93
		c0-10.97-7.89-14.86-14.64-14.86c-7.31,0-13.26,4.92-14.98,12.47l2.07,0.57c1.71-5.83,6.17-8.69,10.74-8.69
		c5.72,0,9.03,4.12,9.03,9.84v2.97c-6.63,3.89-22.41,3.44-22.41,14.99c0,5.95,5.26,10.74,11.55,10.74c4.23,0,7.34-1.68,11.35-6.02
		l0.02-0.01v4.87h14.2v-1.97C424.75,363.61,423.59,361.99,423.59,356.66L423.59,356.66z"/>
</g>
</svg>
